<svg id="Capa_1" enable-background="new 0 0 512 512" height="512" viewBox="0 0 512 512" width="512" xmlns="http://www.w3.org/2000/svg"><g><g><path d="m462.704 504.5h-346.871c-6.569 0-11.895-5.325-11.895-11.895v-473.21c0-6.569 5.325-11.895 11.895-11.895h346.871c6.569 0 11.895 5.325 11.895 11.895v473.211c0 6.569-5.325 11.894-11.895 11.894z" fill="#f9eed7"/></g><g><path d="m462.704 7.5h-30c6.569 0 11.895 5.325 11.895 11.895v473.21c0 6.569-5.326 11.895-11.895 11.895h30c6.569 0 11.895-5.325 11.895-11.895v-473.21c0-6.57-5.325-11.895-11.895-11.895z" fill="#f2ddb1"/></g><g><path d="m371.526 240.553-52.87 80.236 76.87-55.844c11.37-8.26 25.062-12.708 39.115-12.708 5.173 0 9.366-4.193 9.366-9.366v-15.666c0-9.117-7.359-16.524-16.475-16.583-22.532-.148-43.608 11.116-56.006 29.931z" fill="#6483b1"/></g><g><path d="m103.938 171.195v62.435l370.661-100v-62.435z" fill="#ffac7b"/></g><g><path d="m373.972 307.735c-.19 0-.378.01-.568.014.37-1.769.568-3.601.568-5.48 0-14.701-11.917-26.618-26.618-26.618-3.237 0-6.338.579-9.207 1.637-3.718-10.218-13.516-17.516-25.02-17.516-9.632 0-18.069 5.117-22.742 12.781-4.673-7.664-13.109-12.781-22.742-12.781-11.503 0-21.301 7.298-25.02 17.516-2.87-1.058-5.971-1.637-9.207-1.637-14.701 0-26.618 11.917-26.618 26.618 0 1.879.197 3.711.568 5.48-.189-.004-.377-.014-.568-.014-14.701 0-26.618 11.917-26.618 26.618s11.917 26.618 26.618 26.618h167.173c14.701 0 26.618-11.917 26.618-26.618s-11.917-26.618-26.617-26.618z" fill="#fdd76f"/></g><g><path d="m444.36 79.354-.766 62.641 31.005-8.365v-62.435z" fill="#fa955a"/></g><g><path d="m373.972 307.735c-.19 0-.378.01-.568.014.37-1.769.568-3.602.568-5.48 0-14.701-11.917-26.618-26.618-26.618-3.237 0-6.338.579-9.207 1.637-3.718-10.218-13.516-17.516-25.02-17.516-5.568 0-10.731 1.718-15.004 4.641 4.557 3.116 8.104 7.6 10.024 12.874 2.869-1.058 5.97-1.637 9.207-1.637 14.701 0 26.618 11.917 26.618 26.618 0 1.879-.197 3.711-.568 5.48.189-.004.377-.014.568-.014 14.701 0 26.618 11.917 26.618 26.618s-11.917 26.618-26.618 26.618h30c14.701 0 26.618-11.917 26.618-26.618-.001-14.7-11.918-26.617-26.618-26.617z" fill="#fdc352"/></g><g><path d="m103.939 114.924h-66.539v-11.694c0-36.748 29.79-66.538 66.538-66.538v78.232z" fill="#d4bda7"/></g><g><path d="m410.185 379.884h-241.833c-8.932 0-16.172-7.241-16.172-16.172v-4.039c0-8.932 7.241-16.172 16.172-16.172h241.833c8.932 0 16.172 7.241 16.172 16.172v4.039c.001 8.931-7.24 16.172-16.172 16.172z" fill="#ffac7b"/></g><g><path d="m322.58 446.693h-66.622c-20.041 0-38.61-10.525-48.905-27.72l-23.403-39.089h211.239l-23.403 39.089c-10.296 17.195-28.865 27.72-48.906 27.72z" fill="#fa955a"/></g><g><path d="m410.185 343.5h-30c8.932 0 16.172 7.24 16.172 16.172v4.039c0 8.932-7.24 16.172-16.172 16.172h30c8.932 0 16.172-7.241 16.172-16.172v-4.039c.001-8.932-7.24-16.172-16.172-16.172z" fill="#fa955a"/></g><g><path d="m364.888 379.884-23.403 39.089c-10.295 17.195-28.864 27.72-48.905 27.72h30c20.041 0 38.61-10.525 48.905-27.72l23.403-39.089z" fill="#f67f58"/></g><g><path d="m462.704 0h-237.991c-4.143 0-7.5 3.358-7.5 7.5s3.357 7.5 7.5 7.5h237.991c2.424 0 4.395 1.971 4.395 4.395v46.056l-355.661 95.953v-142.009c0-2.423 1.972-4.395 4.395-4.395h78.88c4.143 0 7.5-3.358 7.5-7.5s-3.357-7.5-7.5-7.5h-78.88c-10.694 0-19.395 8.7-19.395 19.395v10.19c-37.524 3.783-66.538 35.61-66.538 73.645v11.694c0 4.142 3.358 7.5 7.5 7.5h59.038v269.114c0 4.142 3.357 7.5 7.5 7.5s7.5-3.358 7.5-7.5v-152.163l355.662-95.953v349.184c0 2.423-1.972 4.395-4.395 4.395h-346.872c-2.423 0-4.395-1.971-4.395-4.395v-71.067c0-4.142-3.357-7.5-7.5-7.5s-7.5 3.358-7.5 7.5v71.067c0 10.694 8.7 19.395 19.395 19.395h346.871c10.694 0 19.395-8.7 19.395-19.395v-473.211c.001-10.695-8.701-19.395-19.395-19.395zm-417.804 107.424v-4.194c0-29.818 22.358-54.85 51.538-58.552v62.747h-51.538zm66.538 116.415v-46.899l355.662-95.953v46.899z"/><path d="m154.705 110.265c.902 3.345 3.93 5.548 7.236 5.548.646 0 1.305-.085 1.958-.261l147.812-39.878c4-1.079 6.367-5.196 5.288-9.195s-5.197-6.366-9.194-5.288l-147.812 39.879c-4 1.079-6.367 5.196-5.288 9.195z"/><path d="m144.68 359.672v4.039c0 13.053 10.619 23.672 23.673 23.672h11.067c.057.106.107.214.169.318l21.029 35.124c11.584 19.348 32.789 31.368 55.34 31.368h66.622c22.551 0 43.756-12.02 55.34-31.368l21.219-35.442h11.046c13.053 0 23.672-10.619 23.672-23.672v-4.039c0-13.053-10.619-23.672-23.672-23.672h-2.139c.026-.548.043-1.097.043-1.647 0-16.244-11.411-29.874-26.639-33.293-.176-5.025-1.448-9.773-3.577-14.022l22.06-16.026c10.155-7.377 22.156-11.276 34.707-11.276 9.3 0 16.866-7.566 16.866-16.866v-15.666c0-13.193-10.733-23.997-23.927-24.083-.166-.001-.327-.001-.493-.001-24.979 0-48.064 12.426-61.824 33.307l-21.007 31.879c-.687.062-1.374.129-2.054.233-6.125-9.941-17.106-16.266-29.075-16.266-8.574 0-16.586 3.126-22.742 8.655-6.156-5.528-14.167-8.655-22.741-8.655-11.969 0-22.95 6.325-29.075 16.266-1.697-.258-3.417-.387-5.152-.387-18.408 0-33.458 14.654-34.096 32.909-15.228 3.419-26.64 17.048-26.64 33.293 0 .549.015 1.098.042 1.647h-4.37c-13.053-.001-23.672 10.618-23.672 23.671zm220.371 55.449c-8.891 14.849-25.164 24.073-42.471 24.073h-66.622c-17.307 0-33.58-9.224-42.471-24.073l-16.607-27.737h184.777zm53.806-55.449v4.039c0 4.782-3.891 8.672-8.672 8.672h-241.832c-4.782 0-8.673-3.891-8.673-8.672v-4.039c0-4.782 3.891-8.672 8.673-8.672h241.833c4.781 0 8.671 3.89 8.671 8.672zm-41.069-114.992c10.973-16.652 29.38-26.56 49.301-26.56.131 0 .263.001.394.001 4.976.032 9.024 4.107 9.024 9.083v15.666c0 1.029-.837 1.866-1.866 1.866-15.738 0-30.789 4.89-43.523 14.141l-22.758 16.533c-2.368-1.856-4.985-3.408-7.794-4.592zm-190.107 89.673c0-10.542 8.576-19.118 19.09-19.118l.441.013c2.268.036 4.467-.95 5.927-2.709 1.459-1.759 2.037-4.088 1.568-6.325-.27-1.295-.408-2.622-.408-3.944 0-10.542 8.576-19.118 19.117-19.118 2.276 0 4.501.395 6.613 1.174 1.873.69 3.94.606 5.751-.233 1.81-.839 3.21-2.365 3.892-4.239 2.738-7.524 9.96-12.58 17.972-12.58 6.723 0 12.83 3.434 16.338 9.186 1.361 2.233 3.788 3.595 6.403 3.595s5.042-1.362 6.403-3.595c3.508-5.752 9.615-9.186 16.339-9.186 8.012 0 15.233 5.056 17.972 12.581.682 1.875 2.083 3.4 3.893 4.239 1.808.839 3.877.924 5.75.233 2.112-.779 4.337-1.174 6.612-1.174 10.542 0 19.118 8.576 19.118 19.118 0 1.322-.138 2.649-.408 3.944-.469 2.237.109 4.566 1.568 6.325 1.427 1.719 3.544 2.711 5.773 2.711.051 0 .102-.001.154-.002l.413-.013c10.541 0 19.117 8.576 19.117 19.118 0 .551-.038 1.1-.085 1.647h-205.241c-.046-.549-.082-1.097-.082-1.648z"/></g></g></svg>