<svg id="Layer_1" enable-background="new 0 0 479.647 479.647" height="512" viewBox="0 0 479.647 479.647" width="512" xmlns="http://www.w3.org/2000/svg"><path d="m414.123 229.047c-.96-.3-1.92-.57-2.88-.81 1.59-9.44 2.41-19.13 2.41-29.02 0-178.26-347.66-177.93-347.66 0 0 9.89.82 19.58 2.41 29.02-.96.24-1.92.51-2.88.81-11.39 3.5-18.9 14.4-18.16 26.3 4.05 65.48 18.347 127.949 40.51 184.98 7.33 18.92 25.62 31.32 45.9 31.32h212.1c20.28 0 38.57-12.4 45.9-31.32 22.128-56.94 36.456-119.439 40.51-184.98.74-11.9-6.77-22.8-18.16-26.3z" fill="#c79a83"/><path d="m399.003 420.707c-2.36 6.75-4.77 13.29-7.23 19.62-7.33 18.92-25.62 31.32-45.9 31.32h-212.1c-20.28 0-38.57-12.4-45.9-31.32-2.46-6.33-4.87-12.87-7.23-19.62.323-.108 318.098-.088 318.36 0z" fill="#ffa4b8"/><path d="m414.123 229.047c-31.282-9.775-59.103 7.154-75.21 37.63-10.86-53.34-88.21-53.4-99.09 0-10.88-53.4-88.23-53.34-99.09 0-15.948-30.175-43.673-47.485-75.21-37.63-11.39 3.5-18.9 14.4-18.16 26.3 3.493 56.476 14.619 111.835 33.28 165.36.18-.06 317.99-.123 318.36 0 18.628-53.43 29.781-108.784 33.28-165.36.74-11.9-6.77-22.8-18.16-26.3z" fill="#cbe3fa"/><path d="m317.343 95.05c-96.657-16.311-211.162 25.582-215.244 124.628-.198 4.802-4.58 8.396-9.309 7.539-7.904-1.433-16.118-1.113-24.387 1.019-1.59-9.44-2.41-19.13-2.41-29.02 0-117.839 152.495-157.783 255.495-119.536 9.06 3.365 5.384 16.978-4.145 15.37z" fill="#e0b7a3"/><path d="m134.941 465.658c3.16 1.258 2.345 5.989-1.168 5.989-20.28 0-38.57-12.4-45.9-31.32-2.46-6.33-4.87-12.87-7.23-19.62.257-.086-1.142-.06 12.202-.06 3.35 0 6.345 2.087 7.505 5.23l5.333 14.45c5.236 13.514 16.115 20.097 29.258 25.331z" fill="#ffbfcb"/><path d="m237.359 17.987c1.464 1.113 3.464 1.113 4.928 0 27.661-21.037 76.325-9.822 66.086 42.729-5.13 26.3-25.04 55.04-60.63 63.95-5.2 1.31-10.64 1.31-15.84 0-35.59-8.91-55.5-37.65-60.63-63.95-10.238-52.551 38.425-63.765 66.086-42.729z" fill="#ffa4b8"/><path d="m212.492 98.856c4.85 7.723-4.734 16.365-11.767 10.56-13.872-11.452-25.483-28.35-29.452-48.699-7.726-39.647 18.075-55.768 43.093-52.259 7.519 1.054 9.317 11 2.78 14.861-24.694 14.585-19.8 51.416-4.654 75.537z" fill="#ffbfcb"/><path d="m284.836 21.154c-3.981 1.506-7.261 3.319-9.734 4.901-3.225 2.064-7.337 1.993-10.515-.143-.231-.155-.47-.313-.716-.472-7.665-4.958-4.463-16.772 4.644-17.402 5.454-.377 10.88.192 15.916 1.737 5.512 1.692 5.797 9.339.405 11.379z" fill="#ffbfcb"/><g fill="#eef7ff"><path d="m67.363 265.347c3.089 49.944 12.183 99.235 27.18 146.95 1.301 4.14-1.794 8.35-6.134 8.35-8.41 0-7.509-.026-7.766.06-18.628-53.43-29.781-108.784-33.28-165.36-.74-11.9 6.77-22.8 18.16-26.3 6.093-1.904 12.329-2.827 18.549-2.701 7.393.15 8.825 10.438 1.756 12.606-12.294 3.772-19.172 15.015-18.465 26.395z"/><path d="m175.858 411.764c.526 4.739-3.184 8.882-7.951 8.882h-10.083l-17.09-153.97c4.725-23.207 22.035-36.328 40.981-39.349 9.098-1.45 13.016 10.925 4.799 15.091-12.011 6.091-21.713 17.128-25.349 33.107-.444 1.947-1.222-7.169 14.693 136.239z"/><path d="m280.039 245.459c-9.538 6.493-16.98 16.575-20.01 30.247-.32 1.446-.206-7.393-.206 135.94 0 4.971-4.029 9-9 9h-11v-153.97c3.99-19.595 16.93-31.991 32.251-37.199 10.005-3.4 16.7 10.036 7.965 15.982z"/><path d="m392.12 242.112c-12.579 6.206-23.807 17.361-32.461 33.178-1.094 1.999.089-6.135-15.935 138.238-.45 4.052-3.874 7.117-7.951 7.117h-13.949l17.09-153.97c13.072-24.733 31.267-36.216 47.964-39.53 9.135-1.812 13.594 10.847 5.242 14.967z"/></g><g><path d="m416.476 221.396c-28.426-8.751-56.238 1.623-75.552 27.211-20.389-38.405-78.136-40.089-101.101-3.457-22.951-36.61-80.687-34.991-101.1 3.457-16.589-21.977-39.445-32.724-63.577-29.776-.763-6.49-1.156-13.056-1.156-19.61 0-46.266 25.853-83.919 72.797-106.023 3.997-1.882 5.712-6.648 3.83-10.646-1.882-3.997-6.647-5.711-10.646-3.83-52.866 24.893-81.981 67.687-81.981 120.499 0 7.871.514 15.762 1.518 23.541-12.885 5.644-21.023 18.726-20.133 33.074 2.513 40.524 8.981 80.898 19.227 119.999 1.126 4.295 5.514 6.826 9.767 5.711 4.274-1.12 6.831-5.492 5.711-9.767-9.982-38.1-16.286-77.442-18.734-116.934-.513-8.262 4.642-15.729 12.533-18.159 25.443-7.834 49.676 4.296 65.075 32.445l12.976 116.882c.454 4.091 3.918 7.118 7.941 7.118 4.761 0 8.489-4.127 7.961-8.883l-13.007-117.158c9.894-43.355 73.429-43.314 82.999.478v106.24c0 4.418 3.582 8 8 8s8-3.582 8-8v-106.293c9.582-43.664 73.099-43.851 82.994-.385l-12.595 113.443c-.527 4.749 3.192 8.883 7.961 8.883 4.022 0 7.487-3.026 7.941-7.118l12.569-113.208c15.399-28.147 39.632-40.279 65.074-32.444 7.893 2.43 13.047 9.897 12.535 18.159-3.844 61.965-17.097 123.535-39.99 182.592-6.077 15.676-21.526 26.208-38.442 26.208h-212.094c-16.917 0-32.366-10.532-38.443-26.208-1.127-2.908-2.233-5.847-3.323-8.792h266.552c4.418 0 8-3.582 8-8s-3.582-8-8-8c-297.045 0-278.553-.359-280.891.647-3.947 1.582-5.992 5.997-4.577 10.052 2.317 6.637 4.78 13.324 7.32 19.877 8.447 21.787 29.891 36.424 53.361 36.424h212.094c23.471 0 44.914-14.638 53.36-36.425 23.586-60.843 37.112-124.045 41.041-187.385.972-15.664-8.813-29.827-23.795-34.439z"/><path d="m184.129 104.459c11.98 13.788 27.827 23.459 45.827 27.97 6.455 1.617 13.279 1.617 19.735 0 15.308-3.836 28.738-11.168 39.92-21.793 3.203-3.043 3.332-8.107.289-11.31-3.044-3.204-8.108-3.333-11.311-.289-9.157 8.701-20.188 14.714-32.787 17.871-3.911.98-8.046.981-11.957 0-33.728-8.452-50.555-36.375-54.716-57.719-9.084-46.592 34.11-51.801 55.43-33.17 3.015 2.635 7.513 2.635 10.529 0 21.316-18.63 64.517-13.432 55.43 33.17-1.398 7.175-3.48 11.879-3.754 12.867-1.019 3.683.703 7.574 4.141 9.293 2.983 1.484 93.467 20.877 103.81 102.622.557 4.399 4.578 7.488 8.94 6.932 4.384-.554 7.487-4.558 6.933-8.941-6.701-52.964-45.154-93.813-105.949-113.079 6.728-24.197 3.324-50.134-18.472-62.687-16.624-9.575-39.36-7.836-56.344 3.711-16.983-11.548-39.722-13.283-56.343-3.71-32.928 18.966-24.486 69.336.649 98.262z"/><path d="m127.823 173.647v7c0 4.418 3.582 8 8 8s8-3.582 8-8v-7c0-4.418-3.582-8-8-8s-8 3.581-8 8z"/><path d="m203.46 165.647v7c0 4.418 3.582 8 8 8s8-3.582 8-8v-7c0-4.418-3.582-8-8-8s-8 3.581-8 8z"/><path d="m269.642 165.647v7c0 4.418 3.582 8 8 8s8-3.582 8-8v-7c0-4.418-3.582-8-8-8s-8 3.581-8 8z"/><path d="m335.823 173.647v7c0 4.418 3.582 8 8 8s8-3.582 8-8v-7c0-4.418-3.582-8-8-8s-8 3.581-8 8z"/></g></svg>