<svg id="Capa_1" enable-background="new 0 0 511.173 511.173" height="512" viewBox="0 0 511.173 511.173" width="512" xmlns="http://www.w3.org/2000/svg"><g><path d="m167.449 257.807h-45.915l-12.505-141.337c-.481-5.502 3.589-10.352 9.09-10.834l25.991-2.274c5.502-.481 10.352 3.589 10.833 9.09z" fill="#ffe02f"/><path d="m138.119 105.636 11.764-1.029c-1.696-.955-3.687-1.427-5.772-1.245l-25.991 2.274c-5.502.481-9.572 5.332-9.09 10.833l12.505 141.337h20l-12.505-141.337c-.483-5.501 3.587-10.352 9.089-10.833z" fill="#fbc700"/><path d="m285.627 257.807h-46.125l12.716-145.41c.481-5.502 5.332-9.572 10.834-9.091l25.982 2.273c5.505.482 9.576 5.337 9.09 10.842z" fill="#ffe02f"/><path d="m277.278 104.55-14.228-1.245c-5.502-.481-10.352 3.589-10.833 9.091l-12.716 145.41h20l12.716-145.41c.299-3.417 2.283-6.281 5.061-7.846z" fill="#fbc700"/><path d="m239.502 257.807h-46.266l21.107-241.25c.481-5.502 5.332-9.572 10.833-9.09l25.991 2.274c5.502.481 9.572 5.332 9.09 10.834z" fill="#ffe02f"/><path d="m239.403 8.711-14.228-1.245c-5.502-.481-10.352 3.589-10.833 9.091l-21.107 241.249h20l21.107-241.249c.299-3.416 2.283-6.28 5.061-7.846z" fill="#fbc700"/><path d="m336.891 202.156-45.915-4.017 9.664-110.466c.578-6.602 6.398-11.486 13-10.908l22.006 1.925c6.602.578 11.486 6.398 10.908 13z" fill="#ffe02f"/><path d="m310.873 199.88 9.767-112.206c.379-4.329 3.011-7.919 6.64-9.715l-13.64-1.193c-6.602-.578-12.423 4.306-13 10.909l-9.665 110.466z" fill="#fbc700"/><path d="m213.592 257.807h-46.143l-17.888-206.713c-.476-5.499 3.593-10.343 9.091-10.824l25.986-2.273c5.508-.482 10.361 3.597 10.835 9.105z" fill="#ffe02f"/><path d="m178.652 40.27 11.758-1.029c-1.696-.955-3.687-1.427-5.773-1.245l-25.986 2.274c-5.498.481-9.567 5.325-9.091 10.824l17.888 206.713h20l-17.887-206.713c-.476-5.499 3.593-10.343 9.091-10.824z" fill="#fbc700"/><path d="m206.485 263.156-45.915-4.017 9.839-112.458c.481-5.502 5.332-9.572 10.834-9.09l25.991 2.274c5.502.481 9.572 5.332 9.09 10.834z" fill="#ffe02f"/><path d="m180.57 259.139 9.839-112.458c.299-3.417 2.283-6.28 5.061-7.846l-14.228-1.245c-5.502-.481-10.352 3.589-10.833 9.09l-9.839 112.458 45.915 4.017.152-1.737z" fill="#fbc700"/><path d="m211.989 302.719 45.915-4.017-9.839-112.458c-.481-5.502-5.332-9.572-10.833-9.09l-25.991 2.274c-5.502.481-9.572 5.332-9.09 10.833z" fill="#ffe02f"/><path d="m222.15 190.261c-.481-5.502 3.589-10.352 9.09-10.833l11.763-1.029c-1.696-.955-3.687-1.427-5.772-1.245l-25.991 2.274c-5.502.481-9.572 5.332-9.09 10.833l9.839 112.458 19.848-1.736z" fill="#fbc700"/><path d="m116.188 196.364h-46.425l-9.332-106.608c-.481-5.502 3.589-10.352 9.09-10.834l25.991-2.274c5.502-.481 10.352 3.589 10.834 9.09z" fill="#ffe02f"/><path d="m89.521 78.923 11.764-1.029c-1.696-.955-3.687-1.427-5.772-1.245l-25.991 2.274c-5.502.481-9.572 5.332-9.09 10.833l9.333 106.608h20l-9.334-106.608c-.482-5.502 3.588-10.352 9.09-10.833z" fill="#fbc700"/><path d="m305.197 503.595h-223.848l-30.721-307.231h61.452v30.78c0 16.933 13.719 30.662 30.662 30.662h123.013c16.933 0 30.662-13.729 30.662-30.662v-30.78h61.442l-24.579 245.779z" fill="#f24141"/><path d="m62.712 317.22h283.06l-9.417 90.485h-264.595z" fill="#fff3de"/><g fill="#d83939"><path d="m90.628 196.365h-40l12.084 120.854h40z"/><path d="m81.349 503.595h40l-9.589-95.89h-40z"/><path d="m336.416 227.145v-30.78h-40v30.78c0 16.933-13.729 30.662-30.662 30.662h40c16.934 0 30.662-13.729 30.662-30.662z"/></g><path d="m62.712 317.219 9.048 90.486h40l-9.048-90.486z" fill="#ffe5c2"/><path d="m429.446 503.673h-124.249l-15.531-62.124h155.311z" fill="#c9f0fe"/><path d="m306.528 441.549c-9.313 0-16.862-7.55-16.862-16.862 0-9.313 8.5-16.862 17.813-16.862v-7.465c0-20.184 16.362-36.546 36.546-36.546 17.155 0 31.062-13.907 31.062-31.062 25.72-.044 46.593 20.794 46.593 46.514h-.007c17.177 0 31.102 14.005 31.102 31.182 0 17.177-13.925 31.102-31.102 31.102h-115.145z" fill="#ffe02f"/><path d="m339.666 424.687c0-9.313 8.5-16.862 17.813-16.862v-7.466c0-20.184 16.362-36.546 36.546-36.546 8.166 0 15.595-3.151 21.14-8.303-8.125-13.65-23.037-22.788-40.078-22.759 0 17.155-13.907 31.062-31.062 31.062-20.184 0-36.546 16.362-36.546 36.546v7.466c-9.313 0-17.813 7.549-17.813 16.862s7.55 16.862 16.862 16.862h50c-9.313 0-16.862-7.549-16.862-16.862z" fill="#fbc700"/><path d="m460.508 434.049h-8.31c16.897-21.804 4.015-56.511-23.445-61.632-3.458-27.499-27.351-45.266-53.68-47.166-4.138.007-7.487 3.363-7.487 7.5 0 11.121-7.746 20.468-18.125 22.928l15.86-158.573c-.048-4.956-2.536-7.705-7.463-8.247h-12.267l3.569-40.888c.36-4.126-2.693-7.764-6.819-8.124-4.118-.365-7.764 2.693-8.124 6.819l-3.683 42.192h-31.215l8.971-102.527c.12-1.373 1.332-2.391 2.716-2.271l25.981 2.27c1.51.271 2.267 1.173 2.27 2.706l-2.22 25.41c-.36 4.126 2.692 7.764 6.819 8.125 4.112.351 7.764-2.692 8.124-6.819l2.219-25.396c-.055-10.721-5.358-17.043-15.908-18.968l-25.981-2.27c-9.618-.837-18.123 6.299-18.963 15.908l-1.179 13.477c-9.275-2.159-21.35-3.222-30.963-2.708l6.526-74.574c.838-9.612-6.3-18.114-15.91-18.953l-25.978-2.268c-10.721.058-17.047 5.36-18.978 15.906l-3.304 37.769c.386-11.337-5.826-24.367-19.575-23.146l-25.991 2.27c-9.594.839-16.73 9.331-15.908 18.938l3.818 44.109c-.806-.043-30.092 2.526-30.887 2.71l-1.198-13.472c-1.926-10.538-8.246-15.841-18.958-15.91l-25.988 2.273c-9.613.841-16.75 9.347-15.909 18.961l3.144 35.881c.362 4.127 4.021 7.183 8.126 6.816 4.127-.361 7.179-4 6.817-8.126l-3.144-35.88c-.12-1.374.899-2.589 2.272-2.709l25.988-2.273c1.535.01 2.438.771 2.709 2.283l9.027 102.458h-31.268l-2.767-31.663c-.361-4.126-3.98-7.172-8.125-6.819-4.126.361-7.179 3.998-6.818 8.125l2.653 30.357h-10.952c-4.927.541-7.414 3.29-7.463 8.246l30.721 307.23c.384 3.834 3.609 6.754 7.463 6.754l348.098.083c3.441 0 6.441-2.342 7.276-5.681l14.111-56.442h9.675c4.143 0 7.5-3.358 7.5-7.5s-3.357-7.499-7.5-7.499zm-78.766-93.25c15.791 2.665 28.68 15.256 31.722 30.966h-22.846c-4.143 0-7.5 3.358-7.5 7.5s3.357 7.5 7.5 7.5h31.055c13.015 0 23.603 10.624 23.603 23.682 0 13.015-10.588 23.603-23.603 23.603h-115.145c-5.162 0-9.362-4.2-9.362-9.363 0-4.9 4.915-9.362 10.313-9.362h.017l36.376-.08c4.142-.009 7.492-3.375 7.483-7.517-.009-4.136-3.365-7.483-7.5-7.483h-.017l-28.859.063c.027-15.327 13.795-28.995 29.046-28.995 18.503 0 34.005-13.101 37.717-30.514zm-6.922 155.374-.013-47.124h25.36l-8.136 47.124zm-32.112 0-8.135-47.124h25.235l.013 47.124zm-43.437-47.124h20.079l8.136 47.124h-16.434zm-36.876-338.267 25.981 2.27c1.507.275 2.263 1.177 2.271 2.708l-11.509 130.282c-5.686 3.307-11.665 4.729-17.937 4.267l-5.661-64.723c-.189-2.168-.769-4.209-1.663-6.062l5.83-66.617c.194-1.482.802-2.321 2.688-2.125zm-84.516 36.551c.12-1.372 1.334-2.389 2.706-2.271l25.987 2.269c1.379.123 2.403 1.342 2.283 2.714l-1.986 22.644c-8.171 2.994-12.235 9.069-12.193 18.226l5.197 59.396h-31zm37.052 102.977-5.311-60.703c.01-1.53.768-2.432 2.273-2.706l25.986-2.279c1.456-.127 2.604.97 2.717 2.271l5.547 63.417zm6.877-233.085c.274-1.516 1.18-2.277 2.718-2.283l25.989 2.27c1.372.12 2.392 1.334 2.271 2.705l-13.106 149.766c-5.529-.498-12.188.649-17.599 1.267l1.719-19.597c.725-8.294-4.498-15.771-12.134-18.205zm-62.508 30.517 26.003-2.271c1.527.008 2.424.766 2.692 2.271l7.184 83.536-13.29-1.16c-7.298-.64-13.93 3.301-17.084 9.423l-7.775-89.091c-.116-1.373.902-2.588 2.27-2.708zm-40.527 65.369 25.987-2.279c1.167-.098 2.217.619 2.585 1.664l9.213 106.444-2.744 31.37c-8.092.833-19.785-.277-25.891-5.373l-11.417-129.631c.137-1.15 1.066-2.09 2.267-2.195zm-14.195 90.753v23.276c0 20.604 17.515 38.17 38.16 38.17h123.021c20.556 0 38.159-17.51 38.159-38.17v-23.28h45.653l-10.588 105.86h-269.483l-10.585-105.86zm-24.53 211.344 108.031.037h.003c4.141 0 7.499-3.356 7.5-7.498s-3.355-7.501-7.497-7.502l-109.537-.038-7.548-75.487h266.483l-3.27 32.695c-19.556 4.466-34.197 21.984-34.234 42.866l-79.561-.036h-.003c-4.141 0-7.498 3.356-7.5 7.497-.002 4.142 3.354 7.501 7.496 7.503l63.797.029c-2.665 6.237-2.722 12.496-.171 18.776h-9.902c-4.143 0-7.5 3.358-7.5 7.5s3.357 7.5 7.5 7.5h9.675l11.76 47.041h-207.435zm343.542 80.965h-16.338l8.136-47.124h19.983z"/></g></svg>