<?xml version="1.0" encoding="UTF-8" standalone="no"?>
<svg
   xmlns:dc="http://purl.org/dc/elements/1.1/"
   xmlns:cc="http://creativecommons.org/ns#"
   xmlns:rdf="http://www.w3.org/1999/02/22-rdf-syntax-ns#"
   xmlns:svg="http://www.w3.org/2000/svg"
   xmlns="http://www.w3.org/2000/svg"
   xmlns:xlink="http://www.w3.org/1999/xlink"
   xmlns:sodipodi="http://sodipodi.sourceforge.net/DTD/sodipodi-0.dtd"
   xmlns:inkscape="http://www.inkscape.org/namespaces/inkscape"
   id="svg2054"
   viewBox="0 0 215.47 231.64"
   version="1.0"
   sodipodi:docname="scrum-to-go.svg"
   inkscape:version="1.0.1 (3bc2e813f5, 2020-09-07)">
  <sodipodi:namedview
     pagecolor="#ffffff"
     bordercolor="#666666"
     borderopacity="1"
     objecttolerance="10"
     gridtolerance="10"
     guidetolerance="10"
     inkscape:pageopacity="0"
     inkscape:pageshadow="2"
     inkscape:window-width="1920"
     inkscape:window-height="973"
     id="namedview288"
     showgrid="false"
     inkscape:snap-grids="true"
     inkscape:zoom="3.0866862"
     inkscape:cx="25.816091"
     inkscape:cy="116.95508"
     inkscape:window-x="0"
     inkscape:window-y="35"
     inkscape:window-maximized="1"
     inkscape:current-layer="svg2054" />
  <defs
     id="defs2056">
    <inkscape:path-effect
       effect="bend_path"
       id="path-effect331"
       is_visible="true"
       lpeversion="1"
       bendpath="m 70.563219,26.173096 c 39.304441,-18.9134911 78.479941,-19.9297914 112.277801,0"
       prop_scale="1.01"
       scale_y_rel="false"
       vertical="false"
       hide_knot="false"
       bendpath-nodetypes="cc" />
    <linearGradient
       id="linearGradient2927">
      <stop
         id="stop2929"
         stop-color="#fff"
         offset="0" />
      <stop
         id="stop2931"
         stop-color="#fff"
         stop-opacity="0"
         offset="1" />
    </linearGradient>
    <linearGradient
       id="linearGradient2965">
      <stop
         id="stop2967"
         stop-color="#cbf9ff"
         stop-opacity=".66327"
         offset="0" />
      <stop
         id="stop2969"
         stop-color="#fff2f2"
         stop-opacity="0"
         offset="1" />
    </linearGradient>
    <radialGradient
       id="radialGradient3222"
       fx="-212.82"
       fy="-1987.7"
       xlink:href="#linearGradient2927"
       gradientUnits="userSpaceOnUse"
       cy="-2034.8"
       cx="-240.85"
       gradientTransform="matrix(-.65815 -.17586 .51350 -.16844 642.11 -2400.2)"
       r="127.14" />
    <linearGradient
       id="linearGradient2881">
      <stop
         id="stop2883"
         stop-color="#999"
         offset="0" />
      <stop
         id="stop2885"
         stop-color="#999"
         stop-opacity="0"
         offset="1" />
    </linearGradient>
    <radialGradient
       id="radialGradient2912"
       gradientUnits="userSpaceOnUse"
       cy="302.75"
       cx="66.016"
       gradientTransform="matrix(1 0 0 .87234 0 38.649)"
       r="18.359">
      <stop
         id="stop2908"
         stop-color="#e3b36a"
         offset="0" />
      <stop
         id="stop2910"
         stop-color="#e3b36a"
         stop-opacity="0"
         offset="1" />
    </radialGradient>
    <radialGradient
       id="radialGradient2937"
       xlink:href="#linearGradient2927"
       gradientUnits="userSpaceOnUse"
       cy="-2546.9"
       cx="-520.71"
       gradientTransform="matrix(1 0 0 .83784 0 -413.01)"
       r="26.429" />
    <linearGradient
       id="linearGradient3176"
       x1="300.66"
       gradientUnits="userSpaceOnUse"
       y1="-95.044"
       gradientTransform="matrix(.46981 .5587 -.11703 .72053 -50.501 21.644)"
       x2="313.02"
       y2="-95.298">
      <stop
         id="stop2999"
         stop-color="#e6e6e6"
         offset="0" />
      <stop
         id="stop3001"
         stop-color="#e6e6e6"
         stop-opacity="0"
         offset="1" />
    </linearGradient>
    <linearGradient
       id="linearGradient3179"
       x1="179.97"
       gradientUnits="userSpaceOnUse"
       y1="194.62"
       gradientTransform="matrix(.72998 0 .17708 .70911 -53.455 20.031)"
       x2="184.48"
       y2="194.62">
      <stop
         id="stop2953"
         stop-color="#e6e6e6"
         offset="0" />
      <stop
         id="stop2955"
         stop-color="#e6e6e6"
         stop-opacity="0"
         offset="1" />
    </linearGradient>
    <linearGradient
       id="linearGradient3186"
       x1="-343.16"
       gradientUnits="userSpaceOnUse"
       y1="652.24"
       gradientTransform="matrix(.22640 0 .037977 .22082 113.79 -6.2884)"
       x2="-140.67"
       y2="588.1">
      <stop
         id="stop3021"
         stop-color="#999"
         offset="0" />
      <stop
         id="stop3027"
         stop-color="#fff"
         stop-opacity=".49804"
         offset=".5" />
      <stop
         id="stop3023"
         stop-color="#999"
         offset="1" />
    </linearGradient>
    <linearGradient
       id="linearGradient3190"
       x1="287.92"
       xlink:href="#linearGradient2965"
       gradientUnits="userSpaceOnUse"
       y1="-119.21"
       gradientTransform="matrix(.72998 0 0 .72998 -43.657 35.331)"
       x2="282.03"
       y2="130.79" />
    <linearGradient
       id="linearGradient3193"
       x1="232.3"
       xlink:href="#linearGradient2965"
       gradientUnits="userSpaceOnUse"
       y1="-6.7106"
       gradientTransform="matrix(.72998 0 0 .72998 -59.625 26.206)"
       x2="289.25"
       y2="129.85" />
    <linearGradient
       id="linearGradient3200"
       x1="678.74"
       xlink:href="#linearGradient2881"
       gradientUnits="userSpaceOnUse"
       y1="318.04"
       gradientTransform="matrix(-.21042 0 0 .21042 244.84 46.36)"
       x2="564.29"
       y2="253.79" />
    <linearGradient
       id="linearGradient3206"
       x1="678.74"
       xlink:href="#linearGradient2881"
       gradientUnits="userSpaceOnUse"
       y1="278.04"
       gradientTransform="matrix(.21042 0 0 .21042 87.788 47.563)"
       x2="390"
       y2="262.36" />
    <radialGradient
       id="radialGradient3210"
       fx="-314.61"
       fy="-2371.3"
       xlink:href="#linearGradient2927"
       gradientUnits="userSpaceOnUse"
       cy="-2031.6"
       cx="-265.86"
       gradientTransform="matrix(-.26233 .0079604 -.0072074 -.049817 85.475 33.733)"
       r="127.14" />
    <radialGradient
       id="radialGradient3213"
       fx="-312.14"
       fy="-2205.1"
       gradientUnits="userSpaceOnUse"
       cy="-2076.2"
       cx="-309.29"
       gradientTransform="matrix(.33282 -.00057844 -.0015784 -.363 268.82 -588.85)"
       r="150.71">
      <stop
         id="stop3172"
         stop-color="#fff"
         offset="0" />
      <stop
         id="stop3174"
         stop-color="#fff"
         stop-opacity="0"
         offset="1" />
    </radialGradient>
    <linearGradient
       id="linearGradient3216"
       x1="92.857"
       gradientUnits="userSpaceOnUse"
       y1="635.22"
       gradientTransform="matrix(.21042 0 0 .21042 76.666 30.428)"
       x2="297.14"
       y2="635.22">
      <stop
         id="stop3097"
         stop-color="#999"
         offset="0" />
      <stop
         id="stop3099"
         stop-color="#999"
         stop-opacity="0"
         offset="1" />
    </linearGradient>
    <radialGradient
       id="radialGradient3225"
       fx="118.3"
       fy="227.9"
       gradientUnits="userSpaceOnUse"
       cy="250.81"
       cx="137.38"
       gradientTransform="matrix(1 0 0 .33190 0 167.56)"
       r="117.18">
      <stop
         id="stop2879"
         stop-opacity=".69072"
         offset="0" />
      <stop
         id="stop2881"
         stop-opacity="0"
         offset="1" />
    </radialGradient>
    <radialGradient
       id="radialGradient2947"
       fx="103.98"
       fy="159.87"
       gradientUnits="userSpaceOnUse"
       cy="172.5"
       cx="101.51"
       gradientTransform="matrix(-.88064 -1.4631 1.2303 -.74053 -22.655 403.87)"
       r="31.117">
      <stop
         id="stop2943"
         stop-color="#e6e6e6"
         offset="0" />
      <stop
         id="stop2949"
         stop-color="#e6e6e6"
         offset=".5" />
      <stop
         id="stop2951"
         stop-color="#e6e6e6"
         offset=".75" />
      <stop
         id="stop2945"
         stop-color="#e6e6e6"
         stop-opacity="0"
         offset="1" />
    </radialGradient>
  </defs>
  <g
     id="layer1"
     transform="translate(-44.709 -17.718)">
    <path
       id="path1988"
       fill-rule="evenodd"
       fill="url(#radialGradient3225)"
       transform="matrix(.70503 0 0 .94449 58.38 -32.06)"
       d="m278.35 250.81a140.97 38.891 0 1 1 -281.94 0 140.97 38.891 0 1 1 281.94 0z" />
    <path
       id="path3116"
       fill-rule="evenodd"
       fill="#999"
       transform="matrix(3.513 0 0 2.1336 46.53 -212.52)"
       d="m45.714 193.08a11.429 12.143 0 1 1 0 -0.04l-11.428 0.04z" />
    <g
       id="g2813"
       transform="matrix(.21042 0 0 .21042 87.788 47.563)"
       fill="#ccc">
      <g
         id="g2836"
         fill="#ccc"
         fill-rule="evenodd">
        <path
           id="path2790"
           d="m374.91 68.393c-190.84 0-345.72 79.767-345.72 178.07-0.002 14.22 3.276 28.07 9.404 41.34l131.97 420.41c14.37 70.8 100.09 125.25 203.6 125.25 31.38 0 61.12-5.01 87.74-13.96 61.11-20.54 105.73-61.85 115.82-111.11h0.19l137.12-426.09h-1.41c4.6-11.58 7-23.57 7-35.84 0-98.3-154.88-178.07-345.71-178.07z" />
        <path
           id="path2808"
           stroke="#dadada"
           stroke-width="2.5392px"
           d="m713.33 283.59l3.06-12.65 2.42-14.53" />
      </g>
    </g>
    <path
       id="path2760"
       d="m-1434.7 145.17c251.1 145.14 553.38-31.26 544-321.18-9.57-295.49-308.4-457.46-564.5-309.75-251.3 144.93-249.7 494.91 6.1 631.74 260.7 139.47 550.39-38.38 550.51-334.02 0.12-290.07-303.81-463.64-550.21-310.56-251.1 156.02-241.9 495.84 14.1 643.77z"
       transform="matrix(.18723 0 0 .091773 403.51 114.52)"
       fill="#fff"
       fill-rule="evenodd" />
    <path
       id="rect3076"
       fill-rule="evenodd"
       fill="url(#linearGradient3216)"
       d="m96.204 108.48s5.576 10.45 18.636 18.34c21.85 8.95 23.45 7.81 23.45 7.81l9.92 85.07s-7.93-2.95-13.64-6.93-9.81-12.31-9.81-12.31l-28.556-91.98z" />
    <path
       id="rect3168"
       fill-rule="evenodd"
       fill="url(#radialGradient3213)"
       d="m124.23 210.98l42.79 10.66 50.4-11.26 1.43-74.85s-34.39 2.98-53.88 3.12c-20.92 0-45.02-3.72-45.02-3.72l4.28 76.05z" />
    <path
       id="path3181"
       fill-rule="evenodd"
       fill="url(#radialGradient3210)"
       d="m163.24 149.36c-14.77 0-26.76-8.48-26.76-18.94 0-10.45 12.43-22.52 26.76-18.93l51.7 12.92c-17.86 8.73-28.71 21.95-51.7 24.95z" />
    <path
       id="path3220"
       fill-rule="evenodd"
       fill="url(#radialGradient3222)"
       transform="matrix(.20599 .012887 0 .40870 212.13 900.79)"
       d="m-124.29-2016.9a127.14 45 0 1 1 0 -0.2l-127.14 0.2z" />
    <path
       id="path2819"
       fill-rule="evenodd"
       fill="url(#linearGradient3206)"
       d="m199.89 86.522c-30.69-2.405-92.87 5.362-94.86 19.768 5.54 11.49 33.2 23.83 62.86 23.83 30.09 0 65.14-16.23 62.59-27.63-0.15 3.18-0.63-12.662-30.59-15.968z" />
    <path
       id="path3231"
       fill-rule="evenodd"
       fill="#fff"
       transform="matrix(.23847 0 0 .046029 232.38 249.72)"
       d="m-192.86-2513.4a64.286 45.714 0 1 1 0 -0.1l-64.28 0.1z" />
    <path
       id="rect3233"
       d="m161.18 142.51h20.6l-8.73 69.31-9.27-3-2.6-66.31z"
       fill-rule="evenodd"
       stroke="#fff"
       stroke-dasharray="0.29458349, 0.29458349"
       stroke-width="2.9458"
       fill="#fff" />
    <path
       id="path3244"
       fill-rule="evenodd"
       fill="#fff"
       transform="matrix(.12859 0 0 .020065 196.6 115.71)"
       d="m-192.86-2513.4a64.286 45.714 0 1 1 0 -0.1l-64.28 0.1z" />
    <path
       id="path2050"
       fill-rule="evenodd"
       fill="url(#linearGradient3200)"
       d="m153.78 67.885c26.46 0 61.92 17.624 71.45 31.673 1.31 1.932 2.13 3.792 2.37 5.532-5.54 11.48-33.2 23.83-62.86 23.83-30.09 0-63.64-17.13-61.09-28.54 4.06-15.454 28.28-17.766 50.13-32.495z" />
    <g
       id="g2015"
       transform="matrix(.72998 0 0 .72998 9.9506 -110.66)"
       fill-rule="evenodd">
      <path
         id="path2012"
         fill="#be8124"
         d="m216.61 280.46c-33.15 0-55.8 10.2-73.96 26.3 10.42 11.77 39.84-11.9 73-11.9 34.45 0 67.3 23.56 76.68 11.08-20.55-18.48-41.24-25.48-75.72-25.48z" />
      <path
         id="path1965"
         fill="#28170b"
         d="m215.91 283.91c-32.24 0-53.9 10.61-70.41 25.6 14.56 10.61 36.6 17.61 68.86 17.61 33.51 0 59.76-6.81 75.23-19.23-18.89-17.28-42.74-23.98-73.68-23.98z" />
    </g>
    <path
       id="path2019"
       opacity=".5"
       d="m84.375 302.75a18.359 16.016 0 1 1 0 -0.05l-18.359 0.05z"
       fill-rule="evenodd"
       transform="matrix(1.0561 0 0 .72998 88.7 -113.15)"
       fill="url(#radialGradient2912)" />
    <path
       id="rect2929"
       fill-rule="evenodd"
       fill="url(#linearGradient3193)"
       d="m150.4 24.9c30.42 11.706 5.26 91.39 3.43 96.1-10.61-5.94-8.82-44.031-24.82-40.768-25.26 5.152 39.55-34.487 21.39-55.332z" />
    <path
       id="rect2926"
       fill-rule="evenodd"
       fill="url(#linearGradient3190)"
       d="m146.79 38.863c7.19-24.17-14.31 38.357-27.32 54.133 10.93 27.674 36.12 21.824 47.05 44.434 0 0-27.76-39.345-19.72-56.429 8.04-17.085-0.01-42.138-0.01-42.138z" />
    <path
       id="path2935"
       fill-rule="evenodd"
       fill="url(#radialGradient2937)"
       transform="matrix(.14490 -.056785 .014618 .083536 206.83 333.76)"
       d="m-494.29-2546.9a26.429 22.143 0 1 1 0 -0.1l-26.42 0.1z" />
    <path
       id="path2945"
       fill-rule="evenodd"
       fill="url(#linearGradient3186)"
       d="m73.089 107.46c-6.18 1.81-16.234 8.65-16.753 22.43 0.335 9.76 7.547 22.02 22.095 25.04 15.032 3.13 27.959-8.67 25.549-22.68-1.06-6.19 1.06-5.49-2.35-10.35-0.54-0.76-3.177-9.17-4.533-11.56-0.498-0.88-0.255 0.83-0.61 1.35-0.607 0.31-1.202-0.04-1.693-0.44-3.558-2.93-11.412-6.09-21.705-3.79zm4.043 7.89c9.819 0 18.567 4.24 20.133 13.35 1.567 9.11-6.697 18.52-16.685 15.88-11.512-3.06-11.467-10.37-11.604-11.62-1.05-9.63-1.664-17.61 8.156-17.61z" />
    <path
       id="path2931"
       d="m81.78 112.33c-13.381 0.36-24.786 11.39-21.991 24.93 5.105 20.81 25.144 18.61 38.552 29.79 13.019 13.4 18.979 25.69 18.979 25.69l4.15 2.49c-5.13-21.79-10.58-43.49-16.1-65.18-3.44-13.64-8.26-17.46-22.29-17.72-0.438-0.01-0.869-0.01-1.3 0zm2.175 6.9c9.735 0 17.525 5.65 18.375 14.61s-6.367 16.24-16.102 16.24c-9.736 0-16.294-6.47-17.146-15.43-0.851-8.96 5.137-15.42 14.873-15.42z"
       fill-rule="evenodd"
       stroke="#dadada"
       stroke-width=".068708"
       fill="url(#radialGradient2947)" />
    <path
       id="path2048"
       fill-rule="evenodd"
       fill="url(#radialGradient2937)"
       transform="matrix(.14490 -.056785 .014618 .083536 186.67 297.47)"
       d="m-494.29-2546.9a26.429 22.143 0 1 1 0 -0.1l-26.42 0.1z" />
    <path
       id="rect2941"
       fill-rule="evenodd"
       fill="url(#linearGradient3179)"
       d="m101.73 120.43s2.91 3.25 3.1 3.43c13.38 13.06 18.68 71.78 18.68 71.78l-2.29-0.6-19.49-74.61z" />
    <path
       id="rect2986"
       fill-rule="evenodd"
       fill="url(#linearGradient3176)"
       d="m98.368 116.31s1.502 0.87 3.182 2.68c1.63 1.75 4.25 5.25 4.25 5.25l1.91 2.94-6.93-7.83-2.412-3.04z" />
    <path
       id="path3033"
       fill-rule="evenodd"
       fill="#e6e6e6"
       d="m84.533 159.03c4.444 1.89 8.871 4.02 12.802 7.24 13.635 13.66 20.155 26.2 20.155 26.2l4.27 2.54c-3.32-12.01-6.74-24-10.2-35.98h-27.027z" />
  </g>
  <metadata
     id="metadata285">
    <rdf:RDF>
      <cc:Work>
        <dc:format>image/svg+xml</dc:format>
        <dc:type
           rdf:resource="http://purl.org/dc/dcmitype/StillImage" />
        <cc:license
           rdf:resource="http://creativecommons.org/licenses/publicdomain/" />
        <dc:publisher>
          <cc:Agent
             rdf:about="http://openclipart.org/">
            <dc:title>Openclipart</dc:title>
          </cc:Agent>
        </dc:publisher>
        <dc:title></dc:title>
      </cc:Work>
      <cc:License
         rdf:about="http://creativecommons.org/licenses/publicdomain/">
        <cc:permits
           rdf:resource="http://creativecommons.org/ns#Reproduction" />
        <cc:permits
           rdf:resource="http://creativecommons.org/ns#Distribution" />
        <cc:permits
           rdf:resource="http://creativecommons.org/ns#DerivativeWorks" />
      </cc:License>
    </rdf:RDF>
  </metadata>
  <g
     aria-label="Scrum to go"
     transform="matrix(0.77964286,0,0,0.71725566,23.582303,53.918187)"
     id="text292"
     style="font-style:normal;font-weight:normal;font-size:18.8094px;line-height:1.25;font-family:sans-serif;fill:#000000;fill-opacity:1;stroke:none;stroke-width:0.783724"
     inkscape:path-effect="#path-effect331">
    <path
       d="m 75.676517,14.743984 0.703864,1.690219 c -0.83757,-0.01985 -1.603901,0.03029 -2.295548,0.147239 -0.691756,0.116969 -1.328761,0.30593 -1.908645,0.564829 -1.007194,0.449678 -1.699231,0.986735 -2.076234,1.598477 -0.371203,0.609326 -0.397816,1.244789 -0.08828,1.9059 0.259724,0.554728 0.632159,0.892432 1.114466,1.015855 0.486961,0.115373 1.258718,0.03222 2.324414,-0.236325 0.394187,-0.09236 0.788536,-0.183246 1.183028,-0.272643 1.453496,-0.350026 2.63586,-0.336597 3.533083,0.01981 0.902561,0.348891 1.561815,1.049873 1.989899,2.093395 0.510333,1.244019 0.469952,2.360237 -0.100529,3.352259 -0.564732,0.989609 -1.639562,1.823251 -3.228597,2.535215 -0.599508,0.268609 -1.267235,0.490564 -2.005563,0.668766 -0.732718,0.1756 -1.520196,0.303544 -2.365126,0.386392 l -0.83708,-1.738357 c 0.883446,0.04897 1.7043,0.01738 2.466332,-0.09743 0.762006,-0.114804 1.466441,-0.316907 2.117027,-0.608665 0.98724,-0.442732 1.667668,-0.967785 2.042933,-1.58802 0.375265,-0.620236 0.414378,-1.288828 0.109203,-2.007303 -0.266443,-0.627288 -0.673734,-1.033304 -1.226157,-1.214347 -0.54564,-0.183276 -1.313525,-0.166268 -2.297585,0.06134 -0.392078,0.09306 -0.784007,0.187593 -1.175766,0.283595 -1.442298,0.347784 -2.580277,0.404567 -3.427916,0.149552 -0.845663,-0.25442 -1.502374,-0.853679 -1.961379,-1.806088 -0.531421,-1.102668 -0.538804,-2.17275 -6.9e-5,-3.210492 0.543808,-1.038754 1.57101,-1.911763 3.078466,-2.587735 0.64594,-0.289652 1.330332,-0.527259 2.051406,-0.711356 0.721048,-0.18409 1.481863,-0.316009 2.280356,-0.394084 z"
       style="font-size:18.8094px;fill:#008080;stroke-width:0.783724"
       id="path294"
       inkscape:original-d="m 79.38931,17.934799 v 1.809302 q -1.056192,-0.505135 -1.992989,-0.75311 -0.936796,-0.247976 -1.809302,-0.247976 -1.515406,0 -2.341991,0.587794 -0.817401,0.587794 -0.817401,1.671538 0,0.909244 0.541873,1.377642 0.551056,0.459214 2.075646,0.743927 l 1.120482,0.229607 q 2.075647,0.394923 3.058365,1.39601 0.991902,0.991902 0.991902,2.66344 0,1.992988 -1.340905,3.021628 -1.33172,1.028639 -3.912502,1.028639 -0.973534,0 -2.075647,-0.220423 -1.092929,-0.220423 -2.268516,-0.652084 v -1.910329 q 1.129666,0.633715 2.21341,0.955164 1.083745,0.32145 2.130753,0.32145 1.58888,0 2.452202,-0.624531 0.863322,-0.624531 0.863322,-1.78175 0,-1.01027 -0.624531,-1.579695 -0.615346,-0.569426 -2.029725,-0.854138 L 74.49409,24.896481 q -2.075647,-0.413292 -3.003259,-1.294983 -0.927612,-0.881691 -0.927612,-2.452202 0,-1.818487 1.276614,-2.865495 1.285799,-1.047007 3.535947,-1.047007 0.964349,0 1.965436,0.174501 1.001086,0.174501 2.048094,0.523504 z" />
    <path
       d="m 88.148195,13.716291 0.503832,1.516613 c -0.56843,-0.09204 -1.120176,-0.115154 -1.653272,-0.06987 -0.528895,0.03729 -1.042266,0.143999 -1.53815,0.319645 -1.110093,0.393206 -1.847029,1.042721 -2.204819,1.930424 -0.360598,0.883461 -0.307116,1.917214 0.145351,3.104743 0.452154,1.186706 1.099941,1.998193 1.929341,2.441128 0.828748,0.437939 1.761444,0.465614 2.813594,0.0922 0.470463,-0.166969 0.914016,-0.390793 1.332457,-0.672229 0.422334,-0.289328 0.822561,-0.63722 1.202543,-1.044318 l 0.497973,1.49898 c -0.382727,0.362413 -0.797949,0.67939 -1.246965,0.951869 -0.443201,0.270486 -0.934777,0.501403 -1.47616,0.694368 -1.471893,0.524629 -2.803676,0.501576 -4.026753,-0.08478 -1.220367,-0.585058 -2.151001,-1.64703 -2.764844,-3.20296 -0.623276,-1.579839 -0.664959,-2.999547 -0.09276,-4.263206 0.577041,-1.263165 1.691716,-2.204594 3.331465,-2.786152 0.53165,-0.188557 1.070518,-0.317274 1.614847,-0.385981 0.542326,-0.07457 1.086968,-0.08806 1.632319,-0.04048 z"
       style="font-size:18.8094px;fill:#008080;stroke-width:0.783724"
       id="path296"
       inkscape:original-d="m 90.437996,21.305429 v 1.579695 Q 89.721622,22.4902 88.996064,22.297331 88.27969,22.095276 87.544948,22.095276 q -1.643986,0 -2.553229,1.047008 -0.909244,1.037824 -0.909244,2.9206 0,1.882777 0.909244,2.929785 0.909243,1.037823 2.553229,1.037823 0.734742,0 1.451116,-0.192869 0.725558,-0.202055 1.441932,-0.596979 v 1.561328 q -0.70719,0.330634 -1.469485,0.495951 -0.753111,0.165317 -1.607248,0.165317 -2.323623,0 -3.69208,-1.4603 -1.368457,-1.460301 -1.368457,-3.940056 0,-2.516492 1.377641,-3.958423 1.386826,-1.441932 3.793107,-1.441932 0.780664,0 1.52459,0.165317 0.743926,0.156133 1.441932,0.477583 z" />
    <path
       d="m 97.669453,12.142832 c -0.225062,-0.05629 -0.46171,-0.07716 -0.709546,-0.06242 -0.243058,0.0071 -0.50452,0.04844 -0.7838,0.124397 -0.990729,0.269468 -1.664665,0.790838 -2.015735,1.549529 -0.347156,0.75231 -0.347382,1.69106 -0.01305,2.819138 l 1.556635,5.252257 c -0.547133,0.162683 -1.093492,0.328791 -1.639043,0.498263 l -3.077867,-9.936239 c 0.586148,-0.181062 1.173474,-0.358553 1.761943,-0.532409 l 0.459075,1.548971 c 0.185561,-0.71331 0.53313,-1.301768 1.042729,-1.762082 0.507581,-0.465974 1.190561,-0.817214 2.0447,-1.045888 0.122005,-0.03266 0.259333,-0.05965 0.411882,-0.08083 0.15095,-0.02715 0.320433,-0.04935 0.508268,-0.0664 -5e-6,-1.6e-5 0.453813,1.693724 0.453808,1.693708 z"
       style="font-size:18.8094px;fill:#008080;stroke-width:0.783724"
       id="path298"
       inkscape:original-d="m 99.33756,22.4902 q -0.284712,-0.165317 -0.62453,-0.238791 -0.330634,-0.08266 -0.734743,-0.08266 -1.432747,0 -2.204226,0.936796 -0.762295,0.927612 -0.762295,2.672625 v 5.418724 H 93.312674 V 20.910505 h 1.699092 v 1.598064 q 0.532688,-0.936796 1.386826,-1.386826 0.854137,-0.459214 2.075646,-0.459214 0.174502,0 0.38574,0.02755 0.211238,0.01837 0.468398,0.06429 z" />
    <path
       d="m 100.46314,16.273916 -1.518946,-6.101795 c 0.59278,-0.146949 1.186566,-0.2900861 1.781326,-0.4293484 l 1.42413,6.0558064 c 0.22487,0.956218 0.58504,1.63093 1.07224,2.025077 0.48671,0.388855 1.10177,0.498157 1.85251,0.335113 0.90203,-0.195902 1.55476,-0.627925 1.96664,-1.308294 0.4173,-0.68045 0.53733,-1.518036 0.34665,-2.512233 l -1.10783,-5.7763194 c 0.60045,-0.1146644 1.20177,-0.2252627 1.80391,-0.331733 l 1.8129,10.2114804 c -0.55475,0.0989 -1.10905,0.201724 -1.66284,0.308407 l -0.30007,-1.564609 c -0.28985,0.697061 -0.67052,1.250582 -1.14439,1.662681 -0.4693,0.405012 -1.0514,0.682154 -1.75145,0.836481 -1.15421,0.254446 -2.11055,0.102041 -2.88675,-0.473706 -0.77416,-0.574238 -1.34322,-1.551862 -1.68803,-2.937008 z m 2.92211,-7.3823548 z"
       style="font-size:18.8094px;fill:#008080;stroke-width:0.783724"
       id="path300"
       inkscape:original-d="m 100.93562,27.137445 v -6.22694 h 1.68991 v 6.16265 q 0,1.4603 0.56943,2.195042 0.56942,0.725558 1.70827,0.725558 1.36846,0 2.15831,-0.872506 0.79903,-0.872507 0.79903,-2.378728 v -5.832016 h 1.68991 v 10.286391 h -1.68991 V 29.6172 q -0.61535,0.936796 -1.43275,1.39601 -0.80821,0.45003 -1.88277,0.45003 -1.77257,0 -2.691,-1.102114 -0.91843,-1.102113 -0.91843,-3.223681 z m 4.25233,-6.474916 z" />
    <path
       d="m 120.62224,8.6348464 c 0.39263,-0.7980206 0.89799,-1.4008976 1.51319,-1.805392 0.61478,-0.4042175 1.36113,-0.6298039 2.23092,-0.6693155 1.17172,-0.053228 2.09009,0.3019228 2.7365,1.0474107 0.64802,0.7412949 0.96982,1.8113714 0.98761,3.2095394 l 0.0798,6.26848 c -0.56378,0.006 -1.12747,0.01666 -1.69104,0.0319 l -0.17824,-6.206918 c -0.0286,-0.9949582 -0.23414,-1.7266077 -0.62557,-2.1960399 -0.39058,-0.4684133 -0.97594,-0.687963 -1.74897,-0.6498158 -0.94474,0.046621 -1.6738,0.3872534 -2.177,1.0089 -0.50407,0.6227373 -0.71126,1.4395467 -0.63614,2.4491687 l 0.43481,5.843774 c -0.56257,0.04147 -1.12492,0.08733 -1.68701,0.137541 l -0.55423,-6.1765 c -0.0894,-0.9961857 -0.33859,-1.713203 -0.75612,-2.1517148 -0.4172,-0.4437077 -1.01968,-0.6273822 -1.80024,-0.5423944 -0.92484,0.1006978 -1.62391,0.4849693 -2.08801,1.140658 -0.46561,0.6506162 -0.62491,1.4748032 -0.4917,2.4719472 l 0.77573,5.806959 c -0.56028,0.07499 -1.12019,0.154142 -1.6797,0.237381 L 111.74576,7.6355553 c 0.60864,-0.090012 1.21805,-0.1757248 1.82819,-0.257075 l 0.21323,1.5962255 c 0.32616,-0.6847297 0.7624,-1.2138396 1.30677,-1.5845508 0.54405,-0.370493 1.2206,-0.6010152 2.02396,-0.6850914 0.81011,-0.084782 1.51762,0.041341 2.11383,0.3729022 0.60335,0.3312623 1.06638,0.8514467 1.3905,1.5568806 z"
       style="font-size:18.8094px;fill:#008080;stroke-width:0.783724"
       id="path302"
       inkscape:original-d="m 121.04001,22.885124 q 0.63371,-1.13885 1.5154,-1.680722 0.88169,-0.541873 2.07565,-0.541873 1.60725,0 2.47975,1.129666 0.87251,1.120482 0.87251,3.196129 v 6.208572 h -1.69909 V 25.04343 q 0,-1.478669 -0.5235,-2.195043 -0.52351,-0.716373 -1.59807,-0.716373 -1.31335,0 -2.07565,0.872506 -0.76229,0.872506 -0.76229,2.378728 v 5.813648 h -1.69909 V 25.04343 q 0,-1.487853 -0.52351,-2.195043 -0.5235,-0.716373 -1.61643,-0.716373 -1.29498,0 -2.05728,0.88169 -0.76229,0.872507 -0.76229,2.369544 v 5.813648 h -1.69909 V 20.910505 h 1.69909 v 1.598064 q 0.57861,-0.945981 1.38682,-1.39601 0.80822,-0.45003 1.91952,-0.45003 1.12048,0 1.90114,0.569425 0.78985,0.569426 1.16641,1.65317 z" />
    <path
       d="m 140.39587,3.8796524 -0.28767,2.9344464 c 1.26583,0.1241743 2.52931,0.2702219 3.78976,0.4379557 l -0.17488,1.3142818 c -1.24534,-0.1657184 -2.49365,-0.310001 -3.74424,-0.4326604 l -0.55,5.6105131 c -0.0826,0.842363 -0.0205,1.395816 0.18253,1.658166 0.20961,0.263565 0.66594,0.430973 1.3704,0.512372 0.57887,0.06689 1.15719,0.138771 1.73487,0.215628 l -0.18833,1.415381 c -0.56957,-0.07577 -1.13976,-0.146642 -1.71048,-0.212582 -1.28641,-0.148627 -2.15142,-0.471418 -2.60245,-1.001508 -0.44914,-0.534624 -0.629,-1.450088 -0.52433,-2.742928 l 0.45491,-5.6191839 c -0.4462,-0.036156 -0.89264,-0.069557 -1.3393,-0.1001949 l 0.0906,-1.3228791 c 0.45213,0.031027 0.90404,0.064849 1.35568,0.1014574 l 0.23793,-2.9389818 c 0.63554,0.051547 1.27056,0.1084596 1.90499,0.1707167 z"
       style="font-size:18.8094px;fill:#008080;stroke-width:0.783724"
       id="path304"
       inkscape:original-d="m 139.00445,17.989904 v 2.920601 h 3.48084 v 1.313351 h -3.48084 v 5.584041 q 0,1.258246 0.33982,1.616433 0.349,0.358187 1.4052,0.358187 h 1.73582 v 1.414379 h -1.73582 q -1.95626,0 -2.70018,-0.725558 -0.74393,-0.734743 -0.74393,-2.663441 v -5.584041 h -1.23988 v -1.313351 h 1.23988 v -2.920601 z" />
    <path
       d="m 150.3796,9.5292287 c -0.96459,-0.1890631 -1.79537,0.026559 -2.47487,0.6357763 -0.67995,0.604463 -1.11211,1.521774 -1.31581,2.748115 -0.20343,1.224738 -0.0971,2.236854 0.29985,3.032322 0.40505,0.792304 1.05095,1.268825 1.9499,1.445045 0.88688,0.173854 1.65952,-0.02807 2.33498,-0.614976 0.67394,-0.585576 1.15682,-1.478923 1.42927,-2.683901 0.27144,-1.200455 0.21679,-2.2101 -0.1833,-3.032448 -0.39793,-0.826644 -1.08195,-1.3421475 -2.04002,-1.5299333 z m 0.27822,-1.4193934 c 1.58503,0.3106646 2.7237,1.0600911 3.39123,2.2037187 0.66973,1.147404 0.78023,2.548527 0.37454,4.206594 -0.40367,1.649817 -1.14465,2.84458 -2.18216,3.597748 -1.03975,0.74978 -2.25375,0.97177 -3.68098,0.691985 -1.43318,-0.280949 -2.47634,-0.945144 -3.15611,-2.03182 -0.67032,-1.087952 -0.90245,-2.473611 -0.65367,-4.15369 0.25002,-1.688576 0.87793,-2.9447308 1.92474,-3.7556243 1.04988,-0.8071415 2.39076,-1.0708737 3.98241,-0.7589114 z"
       style="font-size:18.8094px;fill:#008080;stroke-width:0.783724"
       id="path306"
       inkscape:original-d="m 148.69387,22.095276 q -1.35928,0 -2.14912,1.065377 -0.78985,1.056192 -0.78985,2.902231 0,1.84604 0.78066,2.911416 0.78985,1.056192 2.15831,1.056192 1.35009,0 2.13993,-1.065376 0.78985,-1.065376 0.78985,-2.902232 0,-1.827671 -0.78985,-2.893047 -0.78984,-1.074561 -2.13993,-1.074561 z m 0,-1.432747 q 2.20422,0 3.46247,1.432747 1.25825,1.432748 1.25825,3.967608 0,2.525677 -1.25825,3.967608 -1.25825,1.432748 -3.46247,1.432748 -2.21341,0 -3.47166,-1.432748 -1.24906,-1.441931 -1.24906,-3.967608 0,-2.53486 1.24906,-3.967608 1.25825,-1.432747 3.47166,-1.432747 z" />
    <path
       d="m 169.89183,19.447288 c 0.47365,-1.142772 0.59367,-2.129065 0.34297,-2.965936 -0.24401,-0.832396 -0.83206,-1.43454 -1.75688,-1.787333 -0.91859,-0.350417 -1.7582,-0.29306 -2.50078,0.163118 -0.73812,0.459472 -1.30257,1.276063 -1.71058,2.443876 -0.40541,1.160393 -0.47399,2.149484 -0.22251,2.960133 0.25797,0.814745 0.80899,1.37606 1.6612,1.701159 0.85796,0.32729 1.64277,0.275727 2.37204,-0.162539 0.73322,-0.434834 1.34391,-1.216968 1.81454,-2.352478 z m 0.024,4.38137 c -0.70334,1.61975 -1.58398,2.672619 -2.60646,3.171379 -1.02996,0.506952 -2.23832,0.473542 -3.66826,-0.06928 -0.52995,-0.201174 -1.0151,-0.429612 -1.45714,-0.687667 -0.44407,-0.252206 -0.86024,-0.542761 -1.25017,-0.872913 l 0.53961,-1.569513 c 0.36947,0.41464 0.75142,0.762106 1.14904,1.043244 0.39761,0.281132 0.82265,0.506705 1.2776,0.678042 1.00361,0.377965 1.85503,0.403057 2.57502,0.06046 0.71535,-0.335762 1.30714,-1.045134 1.75889,-2.135056 l 0.32306,-0.779455 c -0.56026,0.430128 -1.1477,0.683878 -1.7646,0.763659 -0.61741,0.07984 -1.27426,-0.01478 -1.97991,-0.280679 -1.17117,-0.441314 -1.957,-1.231546 -2.37785,-2.402306 -0.41966,-1.167468 -0.3974,-2.515508 0.10425,-4.034584 0.50423,-1.52688 1.29296,-2.623189 2.40098,-3.271392 1.10512,-0.646512 2.32514,-0.732492 3.62262,-0.243583 0.78028,0.294021 1.39334,0.69678 1.83456,1.198851 0.44154,0.502424 0.71921,1.110518 0.83321,1.820251 l 0.60352,-1.456126 c 0.57027,0.236348 1.1386,0.477471 1.7049,0.723348 z"
       style="font-size:18.8094px;fill:#008080;stroke-width:0.783724"
       id="path308"
       inkscape:original-d="m 168.96357,25.934305 q 0,-1.836856 -0.7623,-2.847127 -0.75311,-1.01027 -2.12157,-1.01027 -1.35927,0 -2.12157,1.01027 -0.75311,1.010271 -0.75311,2.847127 0,1.827671 0.75311,2.837941 0.7623,1.010271 2.12157,1.010271 1.36846,0 2.12157,-1.010271 0.7623,-1.01027 0.7623,-2.837941 z m 1.6899,3.985976 q 0,2.626703 -1.1664,3.903318 -1.1664,1.285799 -3.57268,1.285799 -0.89088,0 -1.68073,-0.137764 -0.78984,-0.12858 -1.53377,-0.404109 V 32.92354 q 0.74393,0.404108 1.46948,0.596978 0.72556,0.19287 1.47867,0.19287 1.66236,0 2.48894,-0.872507 0.82659,-0.863322 0.82659,-2.617519 v -0.835769 q -0.52351,0.909243 -1.34091,1.359273 -0.8174,0.45003 -1.95625,0.45003 -1.89196,0 -3.04918,-1.441932 -1.15722,-1.441932 -1.15722,-3.820659 0,-2.387913 1.15722,-3.829844 1.15722,-1.441932 3.04918,-1.441932 1.13885,0 1.95625,0.45003 0.8174,0.450029 1.34091,1.359273 v -1.561327 h 1.6899 z" />
    <path
       d="m 180.36329,20.079981 c -0.87088,-0.457813 -1.72924,-0.489126 -2.55496,-0.09985 -0.82481,0.384602 -1.5014,1.14006 -2.04745,2.256998 -0.54533,1.115483 -0.73296,2.11583 -0.58044,2.991657 0.16121,0.875136 0.64331,1.51652 1.45354,1.942763 0.79936,0.42052 1.59691,0.448477 2.41225,0.07987 0.81344,-0.367744 1.53275,-1.085068 2.13996,-2.161372 0.60495,-1.072324 0.84256,-2.055408 0.69483,-2.958427 -0.1444,-0.906455 -0.65272,-1.596909 -1.51773,-2.051636 z m 0.67335,-1.280422 c 1.43149,0.752427 2.30923,1.798062 2.62112,3.086058 0.31295,1.292383 0.0157,2.666579 -0.85023,4.138566 -0.8616,1.464528 -1.91541,2.396101 -3.12494,2.819811 -1.21083,0.419873 -2.43603,0.28457 -3.72196,-0.392023 -1.2913,-0.679419 -2.10013,-1.614061 -2.44042,-2.849827 -0.33088,-1.234263 -0.15718,-2.628498 0.56159,-4.167462 0.72238,-1.546691 1.68331,-2.571059 2.91875,-3.048639 1.23728,-0.473094 2.59869,-0.342022 4.03609,0.413516 z"
       style="font-size:18.8094px;fill:#008080;stroke-width:0.783724"
       id="path310"
       inkscape:original-d="m 178.1203,22.095276 q -1.35928,0 -2.14912,1.065377 -0.78985,1.056192 -0.78985,2.902231 0,1.84604 0.78066,2.911416 0.78985,1.056192 2.15831,1.056192 1.35009,0 2.13993,-1.065376 0.78985,-1.065376 0.78985,-2.902232 0,-1.827671 -0.78985,-2.893047 -0.78984,-1.074561 -2.13993,-1.074561 z m 0,-1.432747 q 2.20422,0 3.46247,1.432747 1.25825,1.432748 1.25825,3.967608 0,2.525677 -1.25825,3.967608 -1.25825,1.432748 -3.46247,1.432748 -2.21341,0 -3.47166,-1.432748 -1.24906,-1.441931 -1.24906,-3.967608 0,-2.53486 1.24906,-3.967608 1.25825,-1.432747 3.47166,-1.432747 z" />
  </g>
</svg>
